# xmcd
#
# Track frame offsets: 
#        150
#        11424
#        24976
#        38168
#        46587
#        57804
#        67576
#        78098
#        89156
#        101368
#        113530
#        125013
#        137364
#        147224
#        159488
#        169353
#        178626
#        189249
#        200679
#        213198
#
# Disc length: 3022 seconds
#
# Revision: 0
# Processed by: cddbd v1.5.2PL0 Copyright (c) Steve Scherf et al.
# Submitted via: ExactAudioCopy v0.95b4
#
DISCID=f90bcc14
DTITLE=Various Artist - One Upon A Time In Wigan Vol2
DYEAR=2005
DGENRE=Soul
TTITLE0=The Jades - I'm Where it's At
TTITLE1=Doni Burdick - The Bari Track (instumental)
TTITLE2=Betty Boo - Say it Isn't so
TTITLE3=VelvetSatins - Nothing can compare to you
TTITLE4=Stanly Mitchell-Get it Baby
TTITLE5=The Sweets - Satisfy Me Baby
TTITLE6=Richard 'Popcorn' Wylie-Hanky Panky
TTITLE7=Detroit Soul - All of My Life
TTITLE8=Montclairs -Hung up on Your Love
TTITLE9=Keanya Collins - Love Bandit
TTITLE10=Detroit Executives - Cool Off
TTITLE11=Larry Clinton - She's Wanted
TTITLE12=Tony Hestor - Down In The Dumps
TTITLE13=Benny Curtis - Dirty Hearts
TTITLE14=Sam Ward - Sister Lee
TTITLE15=The Tomangoes - I Really Love You
TTITLE16=The Ellingtons -(I'm Not) Destined to Become A Loser
TTITLE17=The Dynamics - Yes I Love You Baby
TTITLE18=Richard 'Popcorn' Wylie - Rosemary What Happened
TTITLE19=Cecil Wasington - I Don't Like To Lose
EXTD=
EXTT0=
EXTT1=
EXTT2=
EXTT3=
EXTT4=
EXTT5=
EXTT6=
EXTT7=
EXTT8=
EXTT9=
EXTT10=
EXTT11=
EXTT12=
EXTT13=
EXTT14=
EXTT15=
EXTT16=
EXTT17=
EXTT18=
EXTT19=
PLAYORDER=
